<svg fill="none" height="36" viewBox="0 0 47 36" width="47" xmlns="http://www.w3.org/2000/svg">
    <path
        d="M34.2053 0.444092C29.0919 0.444092 24.7991 1.968 23.047 4.17619C21.2951 1.96791 17.0651 0.444092 11.9518 0.444092C5.22865 0.444092 0 3.07716 0 6.43876V34.6995C0 35.1724 0.333288 35.5559 0.806213 35.5559C1.27896 35.5559 1.63736 35.1725 1.63736 34.6995C1.63736 32.6741 5.84527 30.4176 11.9014 30.4176C17.9576 30.4176 22.1718 32.6742 22.1718 34.6995C22.1718 35.1724 22.5521 35.5559 23.025 35.5559C23.498 35.5559 23.8798 35.1725 23.8798 34.6995C23.8798 32.6741 28.0996 30.4176 34.1558 30.4176C40.2119 30.4176 44.432 32.6742 44.432 34.6995C44.432 35.1724 44.8654 35.5559 45.3383 35.5559C45.8113 35.5559 46.2448 35.1724 46.2448 34.6995V6.43876C46.2448 3.07716 40.9284 0.444092 34.2053 0.444092ZM22.266 31.5678C20.125 29.8385 16.4009 28.7047 11.9893 28.7047C7.57774 28.7047 3.63961 29.8385 1.71268 31.5678V6.43876C1.71268 4.41347 5.93316 2.15687 11.9893 2.15687C18.0455 2.15687 22.266 4.41347 22.266 6.43876V31.5678ZM44.532 31.5678C42.3911 29.8385 38.667 28.7047 34.2554 28.7047C29.8438 28.7047 25.9057 29.8385 23.9787 31.5678V6.43876C23.9787 4.41347 28.1992 2.15687 34.2554 2.15687C40.3116 2.15687 44.532 4.41347 44.532 6.43876V31.5678Z"
        fill="#F8F8F8" />
</svg>
